HIERARCHY
ROOT Hips
{
	OFFSET	0.00	0.00	0.00
	CHANNELS 6 Xposition Yposition Zposition Zrotation Xrotation Yrotation
	JOINT LeftUpLeg
	{
		OFFSET	 0.126116	-0.014019	-0.065224
		CHANNELS 3 Zrotation Xrotation Yrotation
		JOINT LeftLeg
		{
			OFFSET	 0.000000	 0.000000	 0.569914
			CHANNELS 3 Zrotation Xrotation Yrotation
			JOINT LeftFoot
			{
				OFFSET	 0.000000	 0.000000	 0.544423
				CHANNELS 3 Zrotation Xrotation Yrotation
				JOINT LeftToeBase
				{
					OFFSET	 0.000000	 0.000000	 0.207117
					CHANNELS 3 Zrotation Xrotation Yrotation
					End Site
					{
						OFFSET	 0.000000	 0.000000	 0.207117
					}
				}
			}
		}
	}
	JOINT RightUpLeg
	{
		OFFSET	-0.124023	-0.008373	-0.065224
		CHANNELS 3 Zrotation Xrotation Yrotation
		JOINT RightLeg
		{
			OFFSET	 0.000000	 0.000000	 0.570047
			CHANNELS 3 Zrotation Xrotation Yrotation
			JOINT RightFoot
			{
				OFFSET	 0.000000	 0.000000	 0.544354
				CHANNELS 3 Zrotation Xrotation Yrotation
				JOINT RightToeBase
				{
					OFFSET	 0.000000	 0.000000	 0.207540
					CHANNELS 3 Zrotation Xrotation Yrotation
					End Site
					{
						OFFSET	 0.000000	 0.000000	 0.207540
					}
				}
			}
		}
	}
	JOINT Spine
	{
		OFFSET	 0.000184	-0.007763	 0.117403
		CHANNELS 3 Zrotation Xrotation Yrotation
		JOINT Spine1
		{
			OFFSET	 0.000000	 0.000000	 0.137269
			CHANNELS 3 Zrotation Xrotation Yrotation
			JOINT Spine2
			{
				OFFSET	 0.000000	 0.000000	 0.156879
				CHANNELS 3 Zrotation Xrotation Yrotation
				JOINT LeftShoulder
				{
					OFFSET	 0.080501	-0.002496	 0.160144
					CHANNELS 3 Zrotation Xrotation Yrotation
					JOINT LeftArm
					{
						OFFSET	 0.000000	 0.000000	 0.164363
						CHANNELS 3 Zrotation Xrotation Yrotation
						JOINT LeftForeArm
						{
							OFFSET	 0.000000	 0.000000	 0.364576
							CHANNELS 3 Zrotation Xrotation Yrotation
							JOINT LeftHand
							{
								OFFSET	 0.000000	 0.000000	 0.360812
								CHANNELS 3 Zrotation Xrotation Yrotation
								JOINT LeftHandIndex1
								{
									OFFSET	 0.000000	 0.000000	 0.086006
									CHANNELS 3 Zrotation Xrotation Yrotation
									JOINT LeftHandIndex2
									{
										OFFSET	 0.000000	 0.000000	 0.047237
										CHANNELS 3 Zrotation Xrotation Yrotation
										JOINT LeftHandIndex3
										{
											OFFSET	-0.004284	-0.000551	 0.038165
											CHANNELS 3 Zrotation Xrotation Yrotation
											End Site
											{
												OFFSET	-0.004284	-0.000551	 0.038165
											}
										}
									}
								}
							}
						}
					}
				}
				JOINT Neck
				{
					OFFSET	 0.000000	 0.000000	 0.176489
					CHANNELS 3 Zrotation Xrotation Yrotation
					JOINT Head
					{
						OFFSET	 0.000000	-0.001747	 0.077940
						CHANNELS 3 Zrotation Xrotation Yrotation
						End Site
						{
							OFFSET	 0.000000	-0.001747	 0.077940
						}
					}
				}
				JOINT RightShoulder
				{
					OFFSET	-0.080363	 0.000306	 0.159706
					CHANNELS 3 Zrotation Xrotation Yrotation
					JOINT RightArm
					{
						OFFSET	 0.000000	 0.000000	 0.164196
						CHANNELS 3 Zrotation Xrotation Yrotation
						JOINT RightForeArm
						{
							OFFSET	 0.000000	 0.000000	 0.365611
							CHANNELS 3 Zrotation Xrotation Yrotation
							JOINT RightHand
							{
								OFFSET	 0.000000	 0.000000	 0.360648
								CHANNELS 3 Zrotation Xrotation Yrotation
								JOINT RightHandIndex1
								{
									OFFSET	 0.000000	 0.000000	 0.069977
									CHANNELS 3 Zrotation Xrotation Yrotation
									JOINT RightHandIndex2
									{
										OFFSET	 0.000000	 0.000000	 0.052305
										CHANNELS 3 Zrotation Xrotation Yrotation
										JOINT RightHandIndex3
										{
											OFFSET	 0.009002	-0.000782	 0.042196
											CHANNELS 3 Zrotation Xrotation Yrotation
											End Site
											{
												OFFSET	 0.009002	-0.000782	 0.042196
											}
										}
									}
								}
							}
						}
					}
				}
			}
		}
	}
}
MOTION
Frames:    7
Frame Time: 0.03333334
-0.718944	-1.661337	 1.275065	-177.894000	 4.445992	-0.347843	-16.546880	-5.578465	-179.666000	 0.153477	-9.458810	 0.346182	-19.301340	 59.295050	 6.870404	-2.385833	 28.452760	 0.000004	 6.539693	-7.785277	 179.171900	-6.684320	-14.744390	 1.074812	 12.518480	 73.711850	-1.913536	 2.384659	 28.388700	-0.000001	-8.320214	 5.187880	 2.285560	-4.704094	-3.323969	-13.261230	 13.690120	-10.952500	 15.649050	-91.776180	 78.527420	 180.000000	-27.216000	-7.808171	-10.897770	-5.015851	-1.921845	-10.734000	 8.886086	-9.692106	-4.950151	-4.131196	 21.524690	 0.986298	-5.167839	 0.733520	 3.519257	-1.378229	 35.397820	-2.634230	 1.422484	 4.619956	-0.150757	-13.135550	-4.786239	-3.295353	 89.782050	 78.203890	-180.000000	-4.281311	-2.258247	-4.092174	-2.830288	-7.212463	 24.128420	-7.663545	 26.912050	 67.763890	 5.715225	 19.176060	-3.692089	 5.027514	 0.245388	-9.378011	-2.350882	 35.473990	 5.254307
-0.718921	-1.660212	 1.275390	-177.262600	 5.377207	-0.870314	-15.765610	-6.424039	-179.467200	-0.739798	-9.201484	 0.193883	-17.703100	 56.127670	 6.686841	-2.385833	 28.452760	 0.000004	 6.651716	-9.285816	 179.822400	-4.678190	-15.852070	 1.705817	 1.938533	 76.717210	 7.497614	 2.384659	 28.388700	-0.000001	-9.271869	 6.236801	 3.165957	-5.004359	-7.062308	-15.305630	 13.622770	-9.270963	 16.784910	-91.776120	 78.527360	 180.000000	-33.383510	-4.454306	-6.832406	-5.555355	-3.668841	-20.941110	 8.493027	-10.280370	-4.652137	-4.131196	 21.524690	 0.986298	-5.167839	 0.733520	 3.519257	-1.378229	 35.397820	-2.634230	 1.662340	 6.677577	 0.015146	-13.011690	-7.946810	-4.188005	 89.782110	 78.203920	 180.000000	-5.539281	-0.916203	-6.132699	-4.442422	-9.591362	 28.188860	-10.241280	 32.111110	 76.842250	 5.715225	 19.176060	-3.692089	 5.027514	 0.245388	-9.378011	-2.350882	 35.473990	 5.254307
-0.718591	-1.659729	 1.275329	-177.125800	 5.495963	-1.112277	-15.550640	-6.549556	-179.289700	-0.765637	-9.219740	 0.190129	-17.544160	 55.529790	 6.674182	-2.385833	 28.452760	 0.000004	 7.183789	-9.666512	-179.913100	-4.706865	-16.404380	 1.755430	 0.455165	 78.004790	 9.122576	 2.384659	 28.388700	-0.000001	-9.517213	 6.351375	 3.379231	-5.134440	-7.523455	-15.324530	 13.576200	-9.061938	 16.676200	-91.776200	 78.527420	-180.000000	-34.196850	-3.549760	-5.082409	-5.938662	-4.187545	-24.484730	 8.235399	-10.445580	-4.583513	-4.131196	 21.524690	 0.986298	-5.167839	 0.733520	 3.519257	-1.378229	 35.397820	-2.634230	 1.647080	 6.953602	 0.137642	-12.954600	-8.263053	-4.257207	 89.782140	 78.203900	 180.000000	-5.777971	-0.501530	-6.828185	-4.355980	-10.214490	 29.832090	-10.417280	 33.399520	 77.776480	 5.715225	 19.176060	-3.692089	 5.027514	 0.245388	-9.378011	-2.350882	 35.473990	 5.254307
-0.717191	-1.657640	 1.275045	-176.673800	 5.926367	-1.904754	-14.818730	-7.238349	-178.762400	-0.847928	-9.968812	 0.191167	-17.238620	 53.941130	 6.905654	-2.385833	 28.452760	 0.000004	 8.926347	-11.031930	-178.981600	-4.795599	-18.340070	 1.927454	-8.298196	 82.092840	 18.317680	 2.384659	 28.388700	-0.000001	-10.417430	 6.647687	 4.078740	-5.675994	-8.830564	-15.570120	 13.474470	-8.446084	 16.456090	-91.776180	 78.527420	-180.000000	-36.865890	-0.371772	 0.957430	-7.382808	-5.668921	-36.275970	 7.391866	-11.039360	-4.347870	-4.131196	 21.524690	 0.986298	-5.167839	 0.733520	 3.519257	-1.378229	 35.397820	-2.634230	 1.592226	 7.868015	 0.544439	-12.769270	-9.312117	-4.480321	 89.782050	 78.203890	-180.000000	-6.643087	 1.268234	-9.376590	-3.720305	-12.561440	 36.203020	-10.579570	 37.572770	 80.268330	 5.715225	 19.176060	-3.692089	 5.027514	 0.245388	-9.378011	-2.350882	 35.473990	 5.254307
-0.714836	-1.654343	 1.274370	-176.439700	 6.047164	-2.384886	-14.545650	-8.290807	-178.603200	-0.222803	-12.784950	 0.382795	-18.826630	 53.965910	 8.521730	-2.385833	 28.452760	 0.000004	 10.778790	-12.227450	-178.270100	-5.500870	-20.327780	 1.880626	-12.763530	 85.495500	 23.459240	 2.384659	 28.388700	-0.000001	-11.273240	 6.412468	 4.494231	-6.415751	-7.890266	-15.861560	 13.644710	-8.804637	 16.454480	-91.776190	 78.527400	-180.000000	-36.122640	 2.709014	 8.830911	-9.225661	-6.990068	-50.039140	 6.877219	-11.447060	-4.179415	-4.131196	 21.524690	 0.986298	-5.167839	 0.733520	 3.519257	-1.378229	 35.397820	-2.634230	 1.491175	 8.059585	 0.916654	-12.613690	-9.290298	-4.410842	 89.782110	 78.203920	 180.000000	-7.351117	 3.968707	-12.303510	-1.775379	-14.972680	 44.759410	-8.186654	 38.413470	 75.789590	 5.715225	 19.176060	-3.692089	 5.027514	 0.245388	-9.378011	-2.350882	 35.473990	 5.254307
-0.711718	-1.649901	 1.273431	-176.313000	 6.063367	-2.733251	-14.555820	-9.254571	-178.658400	 0.752959	-16.180540	 0.754330	-21.284040	 54.737590	 10.724100	-2.385833	 28.452760	 0.000004	 12.639080	-13.503420	-177.565100	-6.439672	-22.484090	 1.708832	-12.349390	 88.635280	 23.806160	 2.384659	 28.388700	-0.000001	-12.241000	 5.900282	 4.763777	-7.359343	-5.657631	-16.237930	 13.998970	-9.756373	 16.666750	-91.776250	 78.527380	-179.999900	-33.587250	 6.311811	 17.373530	-11.274430	-7.844148	-64.205540	 6.518946	-11.750710	-4.049001	-4.131196	 21.524690	 0.986298	-5.167839	 0.733520	 3.519257	-1.378229	 35.397820	-2.634230	 1.380204	 7.950516	 1.251487	-12.478620	-8.842896	-4.233424	 89.782100	 78.203930	-180.000000	-8.021914	 7.700459	-14.957290	 0.931178	-17.023610	 54.261910	-5.538342	 37.104720	 68.456950	 5.715225	 19.176060	-3.692089	 5.027514	 0.245388	-9.378011	-2.350882	 35.473990	 5.254307
-0.708102	-1.644010	 1.272467	-176.244600	 6.127899	-2.925929	-15.137950	-10.046120	-178.984000	 1.889907	-19.753540	 1.300235	-24.402600	 55.557720	 13.624940	-2.385833	 28.452760	 0.000004	 13.461230	-15.117680	-176.846100	-6.802744	-24.756200	 1.718297	 55.475670	 89.083150	-43.797980	 2.384659	 28.388700	-0.000001	-13.474640	 5.207423	 4.856787	-8.547582	-2.297698	-17.167020	 14.762900	-11.355060	 17.733130	-91.776180	 78.527380	 180.000000	-30.483170	 11.320640	 25.975620	-13.403450	-8.068371	-78.437520	 6.129977	-12.070740	-3.918652	-4.131196	 21.524690	 0.986298	-5.167839	 0.733520	 3.519257	-1.378229	 35.397820	-2.634230	 1.448647	 8.011333	 1.302206	-12.412200	-8.956342	-4.263053	 89.782050	 78.203920	-180.000000	-9.140608	 13.042560	-16.938330	 3.960754	-18.752610	 64.114400	-4.445415	 34.677760	 61.839330	 5.715225	 19.176060	-3.692089	 5.027514	 0.245388	-9.378011	-2.350882	 35.473990	 5.254307
